{
	"patcher" : 	{
		"fileversion" : 1,
		"appversion" : 		{
			"major" : 8,
			"minor" : 1,
			"revision" : 8,
			"architecture" : "x64",
			"modernui" : 1
		}
,
		"classnamespace" : "box",
		"rect" : [ 78.0, 196.0, 821.0, 551.0 ],
		"bglocked" : 0,
		"openinpresentation" : 0,
		"default_fontsize" : 12.0,
		"default_fontface" : 0,
		"default_fontname" : "Arial",
		"gridonopen" : 1,
		"gridsize" : [ 15.0, 15.0 ],
		"gridsnaponopen" : 1,
		"objectsnaponopen" : 1,
		"statusbarvisible" : 2,
		"toolbarvisible" : 1,
		"lefttoolbarpinned" : 0,
		"toptoolbarpinned" : 0,
		"righttoolbarpinned" : 0,
		"bottomtoolbarpinned" : 0,
		"toolbars_unpinned_last_save" : 0,
		"tallnewobj" : 0,
		"boxanimatetime" : 200,
		"enablehscroll" : 1,
		"enablevscroll" : 1,
		"devicewidth" : 0.0,
		"description" : "",
		"digest" : "",
		"tags" : "",
		"style" : "",
		"subpatcher_template" : "",
		"assistshowspatchername" : 0,
		"boxes" : [ 			{
				"box" : 				{
					"id" : "obj-13",
					"maxclass" : "newobj",
					"numinlets" : 2,
					"numoutlets" : 1,
					"outlettype" : [ "signal" ],
					"patching_rect" : [ 539.333338618278503, 266.029991269111633, 34.0, 22.0 ],
					"text" : "*~ 1."
				}

			}
, 			{
				"box" : 				{
					"coll_data" : 					{
						"count" : 128,
						"data" : [ 							{
								"key" : 0,
								"value" : [ 0.0 ]
							}
, 							{
								"key" : 1,
								"value" : [ 0.0 ]
							}
, 							{
								"key" : 2,
								"value" : [ 0.0 ]
							}
, 							{
								"key" : 3,
								"value" : [ 0.0 ]
							}
, 							{
								"key" : 4,
								"value" : [ 0.0 ]
							}
, 							{
								"key" : 5,
								"value" : [ 0.0 ]
							}
, 							{
								"key" : 6,
								"value" : [ 0.0 ]
							}
, 							{
								"key" : 7,
								"value" : [ 0.0 ]
							}
, 							{
								"key" : 8,
								"value" : [ 0.0 ]
							}
, 							{
								"key" : 9,
								"value" : [ 0.0 ]
							}
, 							{
								"key" : 10,
								"value" : [ 0.0 ]
							}
, 							{
								"key" : 11,
								"value" : [ 0.0 ]
							}
, 							{
								"key" : 12,
								"value" : [ 0.0 ]
							}
, 							{
								"key" : 13,
								"value" : [ 0.0 ]
							}
, 							{
								"key" : 14,
								"value" : [ 0.0 ]
							}
, 							{
								"key" : 15,
								"value" : [ 0.0 ]
							}
, 							{
								"key" : 16,
								"value" : [ 0.0 ]
							}
, 							{
								"key" : 17,
								"value" : [ 0.0 ]
							}
, 							{
								"key" : 18,
								"value" : [ 0.0 ]
							}
, 							{
								"key" : 19,
								"value" : [ 0.0 ]
							}
, 							{
								"key" : 20,
								"value" : [ 0.0 ]
							}
, 							{
								"key" : 21,
								"value" : [ 0.0 ]
							}
, 							{
								"key" : 22,
								"value" : [ 0.0 ]
							}
, 							{
								"key" : 23,
								"value" : [ 0.0 ]
							}
, 							{
								"key" : 24,
								"value" : [ 0.0 ]
							}
, 							{
								"key" : 25,
								"value" : [ 0.0 ]
							}
, 							{
								"key" : 26,
								"value" : [ 0.0 ]
							}
, 							{
								"key" : 27,
								"value" : [ 0.0 ]
							}
, 							{
								"key" : 28,
								"value" : [ 0.0 ]
							}
, 							{
								"key" : 29,
								"value" : [ 0.0 ]
							}
, 							{
								"key" : 30,
								"value" : [ 0.0 ]
							}
, 							{
								"key" : 31,
								"value" : [ 0.0 ]
							}
, 							{
								"key" : 32,
								"value" : [ 0.0 ]
							}
, 							{
								"key" : 33,
								"value" : [ 0.0 ]
							}
, 							{
								"key" : 34,
								"value" : [ 0.0 ]
							}
, 							{
								"key" : 35,
								"value" : [ 0.0 ]
							}
, 							{
								"key" : 36,
								"value" : [ 0.0 ]
							}
, 							{
								"key" : 37,
								"value" : [ 0.0 ]
							}
, 							{
								"key" : 38,
								"value" : [ 0.0 ]
							}
, 							{
								"key" : 39,
								"value" : [ 0.0 ]
							}
, 							{
								"key" : 40,
								"value" : [ 0.000001 ]
							}
, 							{
								"key" : 41,
								"value" : [ 0.000002 ]
							}
, 							{
								"key" : 42,
								"value" : [ 0.000003 ]
							}
, 							{
								"key" : 43,
								"value" : [ 0.000006 ]
							}
, 							{
								"key" : 44,
								"value" : [ 0.000013 ]
							}
, 							{
								"key" : 45,
								"value" : [ 0.000026 ]
							}
, 							{
								"key" : 46,
								"value" : [ 0.000052 ]
							}
, 							{
								"key" : 47,
								"value" : [ 0.000104 ]
							}
, 							{
								"key" : 48,
								"value" : [ 0.000207 ]
							}
, 							{
								"key" : 49,
								"value" : [ 0.000415 ]
							}
, 							{
								"key" : 50,
								"value" : [ 0.00083 ]
							}
, 							{
								"key" : 51,
								"value" : [ 0.001659 ]
							}
, 							{
								"key" : 52,
								"value" : [ 0.003319 ]
							}
, 							{
								"key" : 53,
								"value" : [ 0.006638 ]
							}
, 							{
								"key" : 54,
								"value" : [ 0.013275 ]
							}
, 							{
								"key" : 55,
								"value" : [ 0.02655 ]
							}
, 							{
								"key" : 56,
								"value" : [ 0.053101 ]
							}
, 							{
								"key" : 57,
								"value" : [ 0.106201 ]
							}
, 							{
								"key" : 58,
								"value" : [ 0.212402 ]
							}
, 							{
								"key" : 59,
								"value" : [ 0.424805 ]
							}
, 							{
								"key" : 60,
								"value" : [ 0.849609 ]
							}
, 							{
								"key" : 61,
								"value" : [ 1.699219 ]
							}
, 							{
								"key" : 62,
								"value" : [ 3.398438 ]
							}
, 							{
								"key" : 63,
								"value" : [ 6.796875 ]
							}
, 							{
								"key" : 64,
								"value" : [ 13.59375 ]
							}
, 							{
								"key" : 65,
								"value" : [ 27.1875 ]
							}
, 							{
								"key" : 66,
								"value" : [ 54.375 ]
							}
, 							{
								"key" : 67,
								"value" : [ 108.75 ]
							}
, 							{
								"key" : 68,
								"value" : [ 217.5 ]
							}
, 							{
								"key" : 69,
								"value" : [ 435.0 ]
							}
, 							{
								"key" : 70,
								"value" : [ 870.0 ]
							}
, 							{
								"key" : 71,
								"value" : [ 1740.0 ]
							}
, 							{
								"key" : 72,
								"value" : [ 3480.0 ]
							}
, 							{
								"key" : 73,
								"value" : [ 6960.0 ]
							}
, 							{
								"key" : 74,
								"value" : [ 13920.0 ]
							}
, 							{
								"key" : 75,
								"value" : [ 27840.0 ]
							}
, 							{
								"key" : 76,
								"value" : [ 55680.0 ]
							}
, 							{
								"key" : 77,
								"value" : [ 111360.0 ]
							}
, 							{
								"key" : 78,
								"value" : [ 222720.0 ]
							}
, 							{
								"key" : 79,
								"value" : [ 445440.0 ]
							}
, 							{
								"key" : 80,
								"value" : [ 890880.0 ]
							}
, 							{
								"key" : 81,
								"value" : [ 1781760.0 ]
							}
, 							{
								"key" : 82,
								"value" : [ 3563520.0 ]
							}
, 							{
								"key" : 83,
								"value" : [ 7127040.0 ]
							}
, 							{
								"key" : 84,
								"value" : [ 14254080.0 ]
							}
, 							{
								"key" : 85,
								"value" : [ 28508160.0 ]
							}
, 							{
								"key" : 86,
								"value" : [ 57016320.0 ]
							}
, 							{
								"key" : 87,
								"value" : [ 114032640.0 ]
							}
, 							{
								"key" : 88,
								"value" : [ 228065280.0 ]
							}
, 							{
								"key" : 89,
								"value" : [ 456130560.0 ]
							}
, 							{
								"key" : 90,
								"value" : [ 912261120.0 ]
							}
, 							{
								"key" : 91,
								"value" : [ 1824522240.0 ]
							}
, 							{
								"key" : 92,
								"value" : [ 3649044480.0 ]
							}
, 							{
								"key" : 93,
								"value" : [ 7298088960.0 ]
							}
, 							{
								"key" : 94,
								"value" : [ 14596177920.0 ]
							}
, 							{
								"key" : 95,
								"value" : [ 29192355840.0 ]
							}
, 							{
								"key" : 96,
								"value" : [ 58384711680.0 ]
							}
, 							{
								"key" : 97,
								"value" : [ 116769423360.0 ]
							}
, 							{
								"key" : 98,
								"value" : [ 233538846720.0 ]
							}
, 							{
								"key" : 99,
								"value" : [ 467077693440.0 ]
							}
, 							{
								"key" : 100,
								"value" : [ 934155386880.0 ]
							}
, 							{
								"key" : 101,
								"value" : [ 1868310773760.0 ]
							}
, 							{
								"key" : 102,
								"value" : [ 3736621547520.0 ]
							}
, 							{
								"key" : 103,
								"value" : [ 7473243095040.0 ]
							}
, 							{
								"key" : 104,
								"value" : [ 14946486190080.0 ]
							}
, 							{
								"key" : 105,
								"value" : [ 29892972380160.0 ]
							}
, 							{
								"key" : 106,
								"value" : [ 59785944760320.0 ]
							}
, 							{
								"key" : 107,
								"value" : [ 119571889520640.0 ]
							}
, 							{
								"key" : 108,
								"value" : [ 239143779041280.0 ]
							}
, 							{
								"key" : 109,
								"value" : [ 478287558082560.0 ]
							}
, 							{
								"key" : 110,
								"value" : [ 956575116165120.0 ]
							}
, 							{
								"key" : 111,
								"value" : [ 1913150232330240.0 ]
							}
, 							{
								"key" : 112,
								"value" : [ 3826300464660480.0 ]
							}
, 							{
								"key" : 113,
								"value" : [ 7652600929320960.0 ]
							}
, 							{
								"key" : 114,
								"value" : [ 15305201858641920.0 ]
							}
, 							{
								"key" : 115,
								"value" : [ 30610403717283840.0 ]
							}
, 							{
								"key" : 116,
								"value" : [ 61220807434567680.0 ]
							}
, 							{
								"key" : 117,
								"value" : [ 122441614869135360.0 ]
							}
, 							{
								"key" : 118,
								"value" : [ 244883229738270720.0 ]
							}
, 							{
								"key" : 119,
								"value" : [ 489766459476541440.0 ]
							}
, 							{
								"key" : 120,
								"value" : [ 979532918953082880.0 ]
							}
, 							{
								"key" : 121,
								"value" : [ 1959065837906165760.0 ]
							}
, 							{
								"key" : 122,
								"value" : [ 3918131675812331520.0 ]
							}
, 							{
								"key" : 123,
								"value" : [ 7836263351624663040.0 ]
							}
, 							{
								"key" : 124,
								"value" : [ 15672526703249326080.0 ]
							}
, 							{
								"key" : 125,
								"value" : [ 31345053406498652160.0 ]
							}
, 							{
								"key" : 126,
								"value" : [ 62690106812997304320.0 ]
							}
, 							{
								"key" : 127,
								"value" : [ 125380213625994608640.0 ]
							}
 ]
					}
,
					"id" : "obj-6",
					"maxclass" : "newobj",
					"numinlets" : 1,
					"numoutlets" : 4,
					"outlettype" : [ "", "", "", "" ],
					"patching_rect" : [ 443.5, 120.0, 58.0, 22.0 ],
					"saved_object_attributes" : 					{
						"embed" : 1,
						"precision" : 6
					}
,
					"text" : "coll scale"
				}

			}
, 			{
				"box" : 				{
					"id" : "obj-18",
					"maxclass" : "newobj",
					"numinlets" : 2,
					"numoutlets" : 1,
					"outlettype" : [ "signal" ],
					"patching_rect" : [ 539.333338618278503, 309.696657299995422, 34.0, 22.0 ],
					"text" : "*~ 1."
				}

			}
, 			{
				"box" : 				{
					"id" : "obj-8",
					"maxclass" : "number",
					"numinlets" : 1,
					"numoutlets" : 2,
					"outlettype" : [ "", "bang" ],
					"parameter_enable" : 0,
					"patching_rect" : [ 706.333338618278503, 68.0, 50.0, 22.0 ]
				}

			}
, 			{
				"box" : 				{
					"id" : "obj-15",
					"maxclass" : "newobj",
					"numinlets" : 0,
					"numoutlets" : 1,
					"outlettype" : [ "" ],
					"patching_rect" : [ 706.333338618278503, 37.0, 89.0, 22.0 ],
					"text" : "receive bufsize"
				}

			}
, 			{
				"box" : 				{
					"id" : "obj-23",
					"maxclass" : "newobj",
					"numinlets" : 2,
					"numoutlets" : 2,
					"outlettype" : [ "signal", "bang" ],
					"patching_rect" : [ 652.333338618278503, 317.0, 48.0, 22.0 ],
					"text" : "line~ 1."
				}

			}
, 			{
				"box" : 				{
					"id" : "obj-12",
					"maxclass" : "newobj",
					"numinlets" : 1,
					"numoutlets" : 1,
					"outlettype" : [ "" ],
					"patching_rect" : [ 652.333338618278503, 271.029991269111633, 28.0, 22.0 ],
					"saved_object_attributes" : 					{
						"attr_comment" : [ "Freq", "Ratio/Glide", "time", "(f", "i)" ]
					}
,
					"text" : "in 3"
				}

			}
, 			{
				"box" : 				{
					"fontface" : 0,
					"fontname" : "Arial",
					"fontsize" : 12.0,
					"id" : "obj-14",
					"maxclass" : "number~",
					"mode" : 2,
					"numinlets" : 2,
					"numoutlets" : 2,
					"outlettype" : [ "signal", "float" ],
					"patching_rect" : [ 743.333338618278503, 210.69665539264679, 56.0, 22.0 ],
					"sig" : 0.0
				}

			}
, 			{
				"box" : 				{
					"id" : "obj-10",
					"maxclass" : "newobj",
					"numinlets" : 1,
					"numoutlets" : 2,
					"outlettype" : [ "signal", "float" ],
					"patching_rect" : [ 706.333338618278503, 94.0, 77.0, 22.0 ],
					"text" : "sampstoms~"
				}

			}
, 			{
				"box" : 				{
					"id" : "obj-11",
					"linecount" : 3,
					"maxclass" : "comment",
					"numinlets" : 1,
					"numoutlets" : 0,
					"patching_rect" : [ 591.333338618278503, 207.6966552734375, 150.0, 47.0 ],
					"text" : "Calculate Hz from buffer length (buffer length in ms/1000 = 1Hz)"
				}

			}
, 			{
				"box" : 				{
					"id" : "obj-9",
					"linecount" : 3,
					"maxclass" : "comment",
					"numinlets" : 1,
					"numoutlets" : 0,
					"patching_rect" : [ 436.0, 207.6966552734375, 73.0, 47.0 ],
					"text" : "Start playing in a loop"
				}

			}
, 			{
				"box" : 				{
					"id" : "obj-3",
					"maxclass" : "newobj",
					"numinlets" : 1,
					"numoutlets" : 2,
					"outlettype" : [ "int", "int" ],
					"patching_rect" : [ 539.333338618278503, 77.0, 59.0, 22.0 ],
					"text" : "unpack i i"
				}

			}
, 			{
				"box" : 				{
					"id" : "obj-5",
					"maxclass" : "newobj",
					"numinlets" : 2,
					"numoutlets" : 1,
					"outlettype" : [ "float" ],
					"patching_rect" : [ 580.0, 139.69665539264679, 39.0, 22.0 ],
					"text" : "/ 127."
				}

			}
, 			{
				"box" : 				{
					"id" : "obj-4",
					"maxclass" : "newobj",
					"numinlets" : 1,
					"numoutlets" : 0,
					"patching_rect" : [ 539.333338618278503, 478.0, 42.0, 22.0 ],
					"saved_object_attributes" : 					{
						"attr_comment" : "Signal"
					}
,
					"text" : "out~ 1"
				}

			}
, 			{
				"box" : 				{
					"id" : "obj-2",
					"maxclass" : "newobj",
					"numinlets" : 1,
					"numoutlets" : 1,
					"outlettype" : [ "" ],
					"patching_rect" : [ 893.666659712791443, 37.0, 28.0, 22.0 ],
					"saved_object_attributes" : 					{
						"attr_comment" : [ "ADSR", "(i", "i", "f", "i)" ]
					}
,
					"text" : "in 2"
				}

			}
, 			{
				"box" : 				{
					"id" : "obj-1",
					"maxclass" : "newobj",
					"numinlets" : 1,
					"numoutlets" : 1,
					"outlettype" : [ "" ],
					"patching_rect" : [ 539.333338618278503, 37.0, 28.0, 22.0 ],
					"saved_object_attributes" : 					{
						"attr_comment" : [ "Note", "in", "(MIDI/Velocity)" ]
					}
,
					"text" : "in 1"
				}

			}
, 			{
				"box" : 				{
					"id" : "obj-7",
					"maxclass" : "message",
					"numinlets" : 2,
					"numoutlets" : 1,
					"outlettype" : [ "" ],
					"patching_rect" : [ 493.0, 309.696657299995422, 29.5, 22.0 ],
					"text" : "0"
				}

			}
, 			{
				"box" : 				{
					"id" : "obj-277",
					"maxclass" : "newobj",
					"numinlets" : 1,
					"numoutlets" : 4,
					"outlettype" : [ "int", "int", "float", "int" ],
					"patching_rect" : [ 893.666659712791443, 325.6966552734375, 72.0, 22.0 ],
					"text" : "unpack i i f i"
				}

			}
, 			{
				"box" : 				{
					"id" : "obj-275",
					"maxclass" : "newobj",
					"numinlets" : 1,
					"numoutlets" : 1,
					"outlettype" : [ "bang" ],
					"patching_rect" : [ 436.0, 256.6966552734375, 58.0, 22.0 ],
					"text" : "loadbang"
				}

			}
, 			{
				"box" : 				{
					"id" : "obj-160",
					"maxclass" : "newobj",
					"numinlets" : 2,
					"numoutlets" : 1,
					"outlettype" : [ "signal" ],
					"patching_rect" : [ 539.333338618278503, 431.363329648971558, 34.0, 22.0 ],
					"text" : "*~ 0."
				}

			}
, 			{
				"box" : 				{
					"id" : "obj-142",
					"maxclass" : "newobj",
					"numinlets" : 5,
					"numoutlets" : 4,
					"outlettype" : [ "signal", "signal", "", "" ],
					"patching_rect" : [ 893.666659712791443, 401.029988527297974, 61.0, 22.0 ],
					"text" : "adsr~"
				}

			}
, 			{
				"box" : 				{
					"id" : "obj-136",
					"maxclass" : "newobj",
					"numinlets" : 2,
					"numoutlets" : 1,
					"outlettype" : [ "float" ],
					"patching_rect" : [ 443.5, 156.6966552734375, 45.0, 22.0 ],
					"text" : "/ 1000."
				}

			}
, 			{
				"box" : 				{
					"id" : "obj-115",
					"maxclass" : "newobj",
					"numinlets" : 1,
					"numoutlets" : 1,
					"outlettype" : [ "signal" ],
					"patching_rect" : [ 539.333338618278503, 220.1966552734375, 44.0, 22.0 ],
					"text" : "sig~ 0."
				}

			}
, 			{
				"box" : 				{
					"id" : "obj-112",
					"maxclass" : "message",
					"numinlets" : 2,
					"numoutlets" : 1,
					"outlettype" : [ "" ],
					"patching_rect" : [ 436.0, 309.696657299995422, 41.0, 22.0 ],
					"text" : "loop 1"
				}

			}
, 			{
				"box" : 				{
					"id" : "obj-110",
					"maxclass" : "newobj",
					"numinlets" : 3,
					"numoutlets" : 2,
					"outlettype" : [ "signal", "signal" ],
					"patching_rect" : [ 539.333338618278503, 376.363327741622925, 79.0, 22.0 ],
					"saved_object_attributes" : 					{
						"basictuning" : 440,
						"followglobaltempo" : 0,
						"formantcorrection" : 0,
						"loopend" : [ 0.0, "ms" ],
						"loopstart" : [ 0.0, "ms" ],
						"mode" : "basic",
						"originallength" : [ 31.226834988799578, "ticks" ],
						"originaltempo" : 1344.827586206896058,
						"phase" : [ 0.0, "ticks" ],
						"pitchcorrection" : 0,
						"quality" : "basic",
						"timestretch" : [ 0 ]
					}
,
					"text" : "groove~ data"
				}

			}
 ],
		"lines" : [ 			{
				"patchline" : 				{
					"destination" : [ "obj-3", 0 ],
					"source" : [ "obj-1", 0 ]
				}

			}
, 			{
				"patchline" : 				{
					"destination" : [ "obj-14", 0 ],
					"midpoints" : [ 715.833338618278503, 162.848327696323395, 752.833338618278503, 162.848327696323395 ],
					"order" : 0,
					"source" : [ "obj-10", 0 ]
				}

			}
, 			{
				"patchline" : 				{
					"destination" : [ "obj-18", 1 ],
					"midpoints" : [ 715.833338618278503, 298.0, 563.833338618278503, 298.0 ],
					"order" : 1,
					"source" : [ "obj-10", 0 ]
				}

			}
, 			{
				"patchline" : 				{
					"destination" : [ "obj-160", 0 ],
					"source" : [ "obj-110", 0 ]
				}

			}
, 			{
				"patchline" : 				{
					"destination" : [ "obj-110", 0 ],
					"midpoints" : [ 445.5, 353.029992520809174, 548.833338618278503, 353.029992520809174 ],
					"source" : [ "obj-112", 0 ]
				}

			}
, 			{
				"patchline" : 				{
					"destination" : [ "obj-13", 0 ],
					"source" : [ "obj-115", 0 ]
				}

			}
, 			{
				"patchline" : 				{
					"destination" : [ "obj-23", 0 ],
					"source" : [ "obj-12", 0 ]
				}

			}
, 			{
				"patchline" : 				{
					"destination" : [ "obj-18", 0 ],
					"source" : [ "obj-13", 0 ]
				}

			}
, 			{
				"patchline" : 				{
					"destination" : [ "obj-115", 0 ],
					"midpoints" : [ 453.0, 207.363323271274567, 548.833338618278503, 207.363323271274567 ],
					"source" : [ "obj-136", 0 ]
				}

			}
, 			{
				"patchline" : 				{
					"destination" : [ "obj-160", 1 ],
					"midpoints" : [ 903.166659712791443, 426.696659088134766, 563.833338618278503, 426.696659088134766 ],
					"source" : [ "obj-142", 0 ]
				}

			}
, 			{
				"patchline" : 				{
					"destination" : [ "obj-8", 0 ],
					"source" : [ "obj-15", 0 ]
				}

			}
, 			{
				"patchline" : 				{
					"destination" : [ "obj-4", 0 ],
					"source" : [ "obj-160", 0 ]
				}

			}
, 			{
				"patchline" : 				{
					"destination" : [ "obj-110", 0 ],
					"source" : [ "obj-18", 0 ]
				}

			}
, 			{
				"patchline" : 				{
					"destination" : [ "obj-277", 0 ],
					"source" : [ "obj-2", 0 ]
				}

			}
, 			{
				"patchline" : 				{
					"destination" : [ "obj-13", 1 ],
					"midpoints" : [ 661.833338618278503, 349.0, 612.833338618278503, 349.0, 612.833338618278503, 255.029991269111633, 563.833338618278503, 255.029991269111633 ],
					"source" : [ "obj-23", 0 ]
				}

			}
, 			{
				"patchline" : 				{
					"destination" : [ "obj-112", 0 ],
					"order" : 1,
					"source" : [ "obj-275", 0 ]
				}

			}
, 			{
				"patchline" : 				{
					"destination" : [ "obj-7", 0 ],
					"midpoints" : [ 445.5, 293.696656286716461, 502.5, 293.696656286716461 ],
					"order" : 0,
					"source" : [ "obj-275", 0 ]
				}

			}
, 			{
				"patchline" : 				{
					"destination" : [ "obj-142", 4 ],
					"midpoints" : [ 956.166659712791443, 373.863321900367737, 945.166659712791443, 373.863321900367737 ],
					"source" : [ "obj-277", 3 ]
				}

			}
, 			{
				"patchline" : 				{
					"destination" : [ "obj-142", 3 ],
					"midpoints" : [ 938.499993046124814, 373.863321900367737, 934.666659712791443, 373.863321900367737 ],
					"source" : [ "obj-277", 2 ]
				}

			}
, 			{
				"patchline" : 				{
					"destination" : [ "obj-142", 2 ],
					"midpoints" : [ 920.833326379458072, 373.863321900367737, 924.166659712791443, 373.863321900367737 ],
					"source" : [ "obj-277", 1 ]
				}

			}
, 			{
				"patchline" : 				{
					"destination" : [ "obj-142", 1 ],
					"midpoints" : [ 903.166659712791443, 373.863321900367737, 913.666659712791443, 373.863321900367737 ],
					"source" : [ "obj-277", 0 ]
				}

			}
, 			{
				"patchline" : 				{
					"destination" : [ "obj-5", 0 ],
					"midpoints" : [ 588.833338618278503, 141.848327696323395, 589.5, 141.848327696323395 ],
					"source" : [ "obj-3", 1 ]
				}

			}
, 			{
				"patchline" : 				{
					"destination" : [ "obj-6", 0 ],
					"source" : [ "obj-3", 0 ]
				}

			}
, 			{
				"patchline" : 				{
					"destination" : [ "obj-142", 0 ],
					"midpoints" : [ 589.5, 365.863321959972382, 903.166659712791443, 365.863321959972382 ],
					"source" : [ "obj-5", 0 ]
				}

			}
, 			{
				"patchline" : 				{
					"destination" : [ "obj-136", 0 ],
					"source" : [ "obj-6", 0 ]
				}

			}
, 			{
				"patchline" : 				{
					"destination" : [ "obj-110", 0 ],
					"midpoints" : [ 502.5, 353.529992520809174, 548.833338618278503, 353.529992520809174 ],
					"source" : [ "obj-7", 0 ]
				}

			}
, 			{
				"patchline" : 				{
					"destination" : [ "obj-10", 0 ],
					"source" : [ "obj-8", 0 ]
				}

			}
 ]
	}

}
